<?xml version="1.0" standalone="no"?>
<!DOCTYPE svg PUBLIC "-//W3C//DTD SVG 20010904//EN"
 "http://www.w3.org/TR/2001/REC-SVG-20010904/DTD/svg10.dtd">
<svg version="1.0" xmlns="http://www.w3.org/2000/svg"
 width="600.000000pt" height="600.000000pt" viewBox="0 0 600.000000 600.000000"
 preserveAspectRatio="xMidYMid meet">
<metadata>
Created by potrace 1.11, written by Peter Selinger 2001-2013
</metadata>
<g transform="translate(0.000000,600.000000) scale(0.100000,-0.100000)"
fill="#000000" stroke="none">
<path d="M2821 5359 c-335 -24 -726 -106 -1039 -218 -117 -42 -125 -45 -303
-130 -480 -228 -880 -599 -1154 -1071 -162 -278 -250 -519 -302 -820 -27 -158
-24 -485 5 -640 95 -507 352 -929 747 -1225 134 -101 380 -248 495 -297 226
-97 641 -214 940 -267 758 -134 1511 -76 2285 174 213 69 286 101 455 203 253
154 366 239 521 394 305 306 476 676 520 1123 14 147 6 441 -16 580 -58 367
-206 713 -431 1006 -249 325 -674 670 -1070 867 -510 255 -1067 363 -1653 321z
m484 -169 c644 -60 1249 -306 1705 -696 68 -57 229 -220 291 -294 380 -448
567 -933 546 -1420 -7 -163 -19 -245 -63 -415 -98 -388 -262 -658 -554 -915
-264 -233 -789 -471 -1245 -565 -839 -173 -1766 -120 -2435 139 -682 264
-1100 644 -1282 1165 -111 317 -130 709 -51 1061 146 661 655 1272 1348 1619
348 174 680 271 1085 316 142 16 507 18 655 5z"/>
<path d="M4578 3310 c-163 -29 -307 -136 -361 -270 -51 -124 -71 -155 -110
-167 -21 -7 -160 -19 -310 -28 -458 -25 -1340 -18 -1776 15 -155 11 -154 11
-237 198 -46 104 -163 201 -283 236 -71 21 -211 21 -282 0 -221 -65 -361 -246
-362 -469 -1 -139 38 -236 135 -340 99 -106 213 -155 363 -155 105 -1 166 15
250 65 77 45 132 105 179 194 37 70 71 104 117 116 13 3 121 -1 239 -10 448
-33 1310 -36 1720 -5 212 16 273 14 303 -11 15 -11 45 -56 68 -99 52 -101 141
-188 226 -221 115 -45 285 -33 417 29 180 85 276 235 276 431 0 130 -33 223
-117 328 -93 117 -299 191 -455 163z"/>
</g>
</svg>
